<?xml version="1.0" encoding="utf-8"?>
<!DOCTYPE svg PUBLIC "-//W3C//DTD SVG 1.1//EN" "http://www.w3.org/Graphics/SVG/1.1/DTD/svg11.dtd">
<!-- Generated by graphviz version 2.43.0 (0)
 -->
<!-- Title: stones Pages: 1 -->
<svg height="886pt" viewBox="0.00 0.00 864.5 886.0" width="865pt" xmlns="http://www.w3.org/2000/svg" xmlns:xlink="http://www.w3.org/1999/xlink">
 <g class="graph" id="graph0" transform="scale(1 1) rotate(0) translate(4 832)">
  <title>
   stones
  </title>
  <polygon fill="white" points="-4,4 -4,-832 810.5,-832 810.5,4 -4,4" stroke="transparent"/>
  <!-- Codeforces -->
  <g class="node" id="node1">
   <title>
    Codeforces
   </title>
   <g id="a_node1">
    <a target="_parent" xlink:href="https://codeforces.com/problemset" xlink:title="Codeforces(14)">
     <polygon fill="orangered" points="480,-828 367,-828 367,-792 480,-792 480,-828" stroke="lightgrey"/>
     <text fill="white" font-family="Microsoft YaHei" font-size="14.00" text-anchor="middle" x="423.5" y="-806.3">
      Codeforces(14)
     </text>
    </a>
   </g>
  </g>
  <!-- 基础题 -->
  <g class="node" id="node2">
   <title>
    基础题
   </title>
   <polygon fill="lightslategray" points="191.5,-756 117.5,-756 117.5,-720 191.5,-720 191.5,-756" stroke="lightgrey"/>
   <text fill="white" font-family="Microsoft YaHei" font-size="12.00" text-anchor="middle" x="154.5" y="-734.9">
    基础题(10)
   </text>
  </g>
  <!-- Codeforces&#45;&gt;基础题 -->
  <g class="edge" id="edge1">
   <title>
    Codeforces-&gt;基础题
   </title>
   <path d="M366.78,-794.24C317.67,-781.46 247.47,-763.19 201.45,-751.22" fill="none" stroke="lightgrey"/>
   <polygon fill="lightgrey" points="202.29,-747.82 191.73,-748.69 200.53,-754.59 202.29,-747.82" stroke="lightgrey"/>
  </g>
  <!-- Maths -->
  <g class="node" id="node13">
   <title>
    Maths
   </title>
   <polygon fill="lightslategray" points="309,-756 244,-756 244,-720 309,-720 309,-756" stroke="lightgrey"/>
   <text fill="white" font-family="Microsoft YaHei" font-size="12.00" text-anchor="middle" x="276.5" y="-734.9">
    Maths(1)
   </text>
  </g>
  <!-- Codeforces&#45;&gt;Maths -->
  <g class="edge" id="edge12">
   <title>
    Codeforces-&gt;Maths
   </title>
   <path d="M387.54,-791.88C366.57,-781.89 340.02,-769.25 318.14,-758.83" fill="none" stroke="lightgrey"/>
   <polygon fill="lightgrey" points="319.61,-755.65 309.08,-754.51 316.6,-761.97 319.61,-755.65" stroke="lightgrey"/>
  </g>
  <!-- 数论&#45;扩展欧几里得算法 -->
  <g class="node" id="node15">
   <title>
    数论-扩展欧几里得算法
   </title>
   <polygon fill="lightslategray" points="501,-756 346,-756 346,-720 501,-720 501,-756" stroke="lightgrey"/>
   <text fill="white" font-family="Microsoft YaHei" font-size="12.00" text-anchor="middle" x="423.5" y="-734.9">
    数论-扩展欧几里得算法(1)
   </text>
  </g>
  <!-- Codeforces&#45;&gt;数论&#45;扩展欧几里得算法 -->
  <g class="edge" id="edge14">
   <title>
    Codeforces-&gt;数论-扩展欧几里得算法
   </title>
   <path d="M423.5,-791.7C423.5,-783.98 423.5,-774.71 423.5,-766.11" fill="none" stroke="lightgrey"/>
   <polygon fill="lightgrey" points="427,-766.1 423.5,-756.1 420,-766.1 427,-766.1" stroke="lightgrey"/>
  </g>
  <!-- 动态规划&#45;树形DP -->
  <g class="node" id="node17">
   <title>
    动态规划-树形DP
   </title>
   <polygon fill="lightslategray" points="642,-756 519,-756 519,-720 642,-720 642,-756" stroke="lightgrey"/>
   <text fill="white" font-family="Microsoft YaHei" font-size="12.00" text-anchor="middle" x="580.5" y="-734.9">
    动态规划-树形DP(1)
   </text>
  </g>
  <!-- Codeforces&#45;&gt;动态规划&#45;树形DP -->
  <g class="edge" id="edge16">
   <title>
    Codeforces-&gt;动态规划-树形DP
   </title>
   <path d="M461.91,-791.88C483.37,-782.31 510.3,-770.3 533.07,-760.15" fill="none" stroke="lightgrey"/>
   <polygon fill="lightgrey" points="534.51,-763.34 542.22,-756.07 531.66,-756.94 534.51,-763.34" stroke="lightgrey"/>
  </g>
  <!-- 模拟题 -->
  <g class="node" id="node19">
   <title>
    模拟题
   </title>
   <polygon fill="lightslategray" points="744,-756 677,-756 677,-720 744,-720 744,-756" stroke="lightgrey"/>
   <text fill="white" font-family="Microsoft YaHei" font-size="12.00" text-anchor="middle" x="710.5" y="-734.9">
    模拟题(1)
   </text>
  </g>
  <!-- Codeforces&#45;&gt;模拟题 -->
  <g class="edge" id="edge18">
   <title>
    Codeforces-&gt;模拟题
   </title>
   <path d="M480.39,-796.64C526.64,-786.39 593.49,-771.09 651.5,-756 656.53,-754.69 661.78,-753.27 666.99,-751.81" fill="none" stroke="lightgrey"/>
   <polygon fill="lightgrey" points="668.22,-755.1 676.89,-749.01 666.31,-748.37 668.22,-755.1" stroke="lightgrey"/>
  </g>
  <!-- 1A -->
  <g class="node" id="node3">
   <title>
    1A
   </title>
   <g id="a_node3">
    <a target="_parent" xlink:href="https://codeforces.com/problemset/problem/1/A" xlink:title="1A. Theatre Square">
     <polygon fill="none" points="164,-684 39,-684 39,-648 164,-648 164,-684" stroke="greenyellow"/>
     <text font-family="Microsoft YaHei" font-size="12.00" text-anchor="middle" x="101.5" y="-662.9">
      1A. Theatre Square
     </text>
    </a>
   </g>
  </g>
  <!-- 基础题&#45;&gt;1A -->
  <g class="edge" id="edge2">
   <title>
    基础题-&gt;1A
   </title>
   <path d="M141.4,-719.7C135.11,-711.39 127.45,-701.28 120.54,-692.14" fill="none" stroke="lightgrey"/>
   <polygon fill="lightgrey" points="123.28,-689.96 114.45,-684.1 117.7,-694.19 123.28,-689.96" stroke="lightgrey"/>
  </g>
  <!-- 4A -->
  <g class="node" id="node4">
   <title>
    4A
   </title>
   <g id="a_node4">
    <a target="_parent" xlink:href="https://codeforces.com/problemset/problem/4/A" xlink:title="4A. Watermelon">
     <polygon fill="none" points="155,-612 48,-612 48,-576 155,-576 155,-612" stroke="greenyellow"/>
     <text font-family="Microsoft YaHei" font-size="12.00" text-anchor="middle" x="101.5" y="-590.9">
      4A. Watermelon
     </text>
    </a>
   </g>
  </g>
  <!-- 1A&#45;&gt;4A -->
  <g class="edge" id="edge3">
   <title>
    1A-&gt;4A
   </title>
   <path d="M101.5,-647.7C101.5,-639.98 101.5,-630.71 101.5,-622.11" fill="none" stroke="lightgrey"/>
   <polygon fill="lightgrey" points="105,-622.1 101.5,-612.1 98,-622.1 105,-622.1" stroke="lightgrey"/>
  </g>
  <!-- 5A -->
  <g class="node" id="node5">
   <title>
    5A
   </title>
   <g id="a_node5">
    <a target="_parent" xlink:href="https://codeforces.com/problemset/problem/5/A" xlink:title="5A. Chat Servers Outgoing Traffic">
     <polygon fill="none" points="202.5,-540 0.5,-540 0.5,-504 202.5,-504 202.5,-540" stroke="greenyellow"/>
     <text font-family="Microsoft YaHei" font-size="12.00" text-anchor="middle" x="101.5" y="-518.9">
      5A. Chat Servers Outgoing Traffic
     </text>
    </a>
   </g>
  </g>
  <!-- 4A&#45;&gt;5A -->
  <g class="edge" id="edge4">
   <title>
    4A-&gt;5A
   </title>
   <path d="M101.5,-575.7C101.5,-567.98 101.5,-558.71 101.5,-550.11" fill="none" stroke="lightgrey"/>
   <polygon fill="lightgrey" points="105,-550.1 101.5,-540.1 98,-550.1 105,-550.1" stroke="lightgrey"/>
  </g>
  <!-- 6A -->
  <g class="node" id="node6">
   <title>
    6A
   </title>
   <g id="a_node6">
    <a target="_parent" xlink:href="https://codeforces.com/problemset/problem/6/A" xlink:title="6A. Triangle">
     <polygon fill="none" points="143,-468 60,-468 60,-432 143,-432 143,-468" stroke="greenyellow"/>
     <text font-family="Microsoft YaHei" font-size="12.00" text-anchor="middle" x="101.5" y="-446.9">
      6A. Triangle
     </text>
    </a>
   </g>
  </g>
  <!-- 5A&#45;&gt;6A -->
  <g class="edge" id="edge5">
   <title>
    5A-&gt;6A
   </title>
   <path d="M101.5,-503.7C101.5,-495.98 101.5,-486.71 101.5,-478.11" fill="none" stroke="lightgrey"/>
   <polygon fill="lightgrey" points="105,-478.1 101.5,-468.1 98,-478.1 105,-478.1" stroke="lightgrey"/>
  </g>
  <!-- 750A -->
  <g class="node" id="node7">
   <title>
    750A
   </title>
   <g id="a_node7">
    <a target="_parent" xlink:href="https://codeforces.com/problemset/problem/750/A" xlink:title="750A. New Year and Hurry">
     <polygon fill="none" points="183,-396 20,-396 20,-360 183,-360 183,-396" stroke="greenyellow"/>
     <text font-family="Microsoft YaHei" font-size="12.00" text-anchor="middle" x="101.5" y="-374.9">
      750A. New Year and Hurry
     </text>
    </a>
   </g>
  </g>
  <!-- 6A&#45;&gt;750A -->
  <g class="edge" id="edge6">
   <title>
    6A-&gt;750A
   </title>
   <path d="M101.5,-431.7C101.5,-423.98 101.5,-414.71 101.5,-406.11" fill="none" stroke="lightgrey"/>
   <polygon fill="lightgrey" points="105,-406.1 101.5,-396.1 98,-406.1 105,-406.1" stroke="lightgrey"/>
  </g>
  <!-- 784E -->
  <g class="node" id="node8">
   <title>
    784E
   </title>
   <g id="a_node8">
    <a target="_parent" xlink:href="https://codeforces.com/problemset/problem/784/E" xlink:title="784E. Twisted Circuit">
     <polygon fill="none" points="167.5,-324 35.5,-324 35.5,-288 167.5,-288 167.5,-324" stroke="orange"/>
     <text font-family="Microsoft YaHei" font-size="12.00" text-anchor="middle" x="101.5" y="-302.9">
      784E. Twisted Circuit
     </text>
    </a>
   </g>
  </g>
  <!-- 750A&#45;&gt;784E -->
  <g class="edge" id="edge7">
   <title>
    750A-&gt;784E
   </title>
   <path d="M101.5,-359.7C101.5,-351.98 101.5,-342.71 101.5,-334.11" fill="none" stroke="lightgrey"/>
   <polygon fill="lightgrey" points="105,-334.1 101.5,-324.1 98,-334.1 105,-334.1" stroke="lightgrey"/>
  </g>
  <!-- 785A -->
  <g class="node" id="node9">
   <title>
    785A
   </title>
   <g id="a_node9">
    <a target="_parent" xlink:href="https://codeforces.com/problemset/problem/785/A" xlink:title="785A. Anton and Polyhedrons">
     <polygon fill="none" points="193.5,-252 9.5,-252 9.5,-216 193.5,-216 193.5,-252" stroke="greenyellow"/>
     <text font-family="Microsoft YaHei" font-size="12.00" text-anchor="middle" x="101.5" y="-230.9">
      785A. Anton and Polyhedrons
     </text>
    </a>
   </g>
  </g>
  <!-- 784E&#45;&gt;785A -->
  <g class="edge" id="edge8">
   <title>
    784E-&gt;785A
   </title>
   <path d="M101.5,-287.7C101.5,-279.98 101.5,-270.71 101.5,-262.11" fill="none" stroke="lightgrey"/>
   <polygon fill="lightgrey" points="105,-262.1 101.5,-252.1 98,-262.1 105,-262.1" stroke="lightgrey"/>
  </g>
  <!-- 802M -->
  <g class="node" id="node10">
   <title>
    802M
   </title>
   <g id="a_node10">
    <a target="_parent" xlink:href="https://codeforces.com/problemset/problem/802/M" xlink:title="802M. April Fools' Problem (easy)">
     <polygon fill="none" points="203,-180 0,-180 0,-144 203,-144 203,-180" stroke="orange"/>
     <text font-family="Microsoft YaHei" font-size="12.00" text-anchor="middle" x="101.5" y="-158.9">
      802M. April Fools' Problem (easy)
     </text>
    </a>
   </g>
  </g>
  <!-- 785A&#45;&gt;802M -->
  <g class="edge" id="edge9">
   <title>
    785A-&gt;802M
   </title>
   <path d="M101.5,-215.7C101.5,-207.98 101.5,-198.71 101.5,-190.11" fill="none" stroke="lightgrey"/>
   <polygon fill="lightgrey" points="105,-190.1 101.5,-180.1 98,-190.1 105,-190.1" stroke="lightgrey"/>
  </g>
  <!-- 855A -->
  <g class="node" id="node11">
   <title>
    855A
   </title>
   <g id="a_node11">
    <a target="_parent" xlink:href="https://codeforces.com/problemset/problem/855/A" xlink:title="855A. Tom Riddle's Diary">
     <polygon fill="none" points="179,-108 24,-108 24,-72 179,-72 179,-108" stroke="greenyellow"/>
     <text font-family="Microsoft YaHei" font-size="12.00" text-anchor="middle" x="101.5" y="-86.9">
      855A. Tom Riddle's Diary
     </text>
    </a>
   </g>
  </g>
  <!-- 802M&#45;&gt;855A -->
  <g class="edge" id="edge10">
   <title>
    802M-&gt;855A
   </title>
   <path d="M101.5,-143.7C101.5,-135.98 101.5,-126.71 101.5,-118.11" fill="none" stroke="lightgrey"/>
   <polygon fill="lightgrey" points="105,-118.1 101.5,-108.1 98,-118.1 105,-118.1" stroke="lightgrey"/>
  </g>
  <!-- 1157B -->
  <g class="node" id="node12">
   <title>
    1157B
   </title>
   <g id="a_node12">
    <a target="_parent" xlink:href="https://codeforces.com/problemset/problem/1157/B" xlink:title="1157B. Long Number">
     <polygon fill="none" points="169,-36 34,-36 34,0 169,0 169,-36" stroke="orange"/>
     <text font-family="Microsoft YaHei" font-size="12.00" text-anchor="middle" x="101.5" y="-14.9">
      1157B. Long Number
     </text>
    </a>
   </g>
  </g>
  <!-- 855A&#45;&gt;1157B -->
  <g class="edge" id="edge11">
   <title>
    855A-&gt;1157B
   </title>
   <path d="M101.5,-71.7C101.5,-63.98 101.5,-54.71 101.5,-46.11" fill="none" stroke="lightgrey"/>
   <polygon fill="lightgrey" points="105,-46.1 101.5,-36.1 98,-46.1 105,-46.1" stroke="lightgrey"/>
  </g>
  <!-- 409H -->
  <g class="node" id="node14">
   <title>
    409H
   </title>
   <g id="a_node14">
    <a target="_parent" xlink:href="https://codeforces.com/problemset/problem/409/H" xlink:title="409H. A + B Strikes Back">
     <polygon fill="none" points="334.5,-684 182.5,-684 182.5,-648 334.5,-648 334.5,-684" stroke="orange"/>
     <text font-family="Microsoft YaHei" font-size="12.00" text-anchor="middle" x="258.5" y="-662.9">
      409H. A + B Strikes Back
     </text>
    </a>
   </g>
  </g>
  <!-- Maths&#45;&gt;409H -->
  <g class="edge" id="edge13">
   <title>
    Maths-&gt;409H
   </title>
   <path d="M272.05,-719.7C270.05,-711.9 267.63,-702.51 265.4,-693.83" fill="none" stroke="lightgrey"/>
   <polygon fill="lightgrey" points="268.78,-692.92 262.9,-684.1 262,-694.66 268.78,-692.92" stroke="lightgrey"/>
  </g>
  <!-- 1478D -->
  <g class="node" id="node16">
   <title>
    1478D
   </title>
   <g id="a_node16">
    <a target="_parent" xlink:href="https://codeforces.com/problemset/problem/1477/A" xlink:title="1478D. Nezzar and Board">
     <polygon fill="none" points="510.5,-684 352.5,-684 352.5,-648 510.5,-648 510.5,-684" stroke="orange"/>
     <text font-family="Microsoft YaHei" font-size="12.00" text-anchor="middle" x="431.5" y="-662.9">
      1478D. Nezzar and Board
     </text>
    </a>
   </g>
  </g>
  <!-- 数论&#45;扩展欧几里得算法&#45;&gt;1478D -->
  <g class="edge" id="edge15">
   <title>
    数论-扩展欧几里得算法-&gt;1478D
   </title>
   <path d="M425.48,-719.7C426.36,-711.98 427.42,-702.71 428.4,-694.11" fill="none" stroke="lightgrey"/>
   <polygon fill="lightgrey" points="431.89,-694.44 429.55,-684.1 424.93,-693.64 431.89,-694.44" stroke="lightgrey"/>
  </g>
  <!-- 1156D -->
  <g class="node" id="node18">
   <title>
    1156D
   </title>
   <g id="a_node18">
    <a target="_parent" xlink:href="https://codeforces.com/problemset/problem/1156/D" xlink:title="1156D. 0-1-Tree">
     <polygon fill="none" points="632.5,-684 528.5,-684 528.5,-648 632.5,-648 632.5,-684" stroke="red"/>
     <text font-family="Microsoft YaHei" font-size="12.00" text-anchor="middle" x="580.5" y="-662.9">
      1156D. 0-1-Tree
     </text>
    </a>
   </g>
  </g>
  <!-- 动态规划&#45;树形DP&#45;&gt;1156D -->
  <g class="edge" id="edge17">
   <title>
    动态规划-树形DP-&gt;1156D
   </title>
   <path d="M580.5,-719.7C580.5,-711.98 580.5,-702.71 580.5,-694.11" fill="none" stroke="lightgrey"/>
   <polygon fill="lightgrey" points="584,-694.1 580.5,-684.1 577,-694.1 584,-694.1" stroke="lightgrey"/>
  </g>
  <!-- 1493B -->
  <g class="node" id="node20">
   <title>
    1493B
   </title>
   <g id="a_node20">
    <a target="_parent" xlink:href="https://codeforces.com/problemset/problem/1493/B" xlink:title="1493B. Planet Lapituletti">
     <polygon fill="none" points="806.5,-684 650.5,-684 650.5,-648 806.5,-648 806.5,-684" stroke="orange"/>
     <text font-family="Microsoft YaHei" font-size="12.00" text-anchor="middle" x="728.5" y="-662.9">
      1493B. Planet Lapituletti
     </text>
    </a>
   </g>
  </g>
  <!-- 模拟题&#45;&gt;1493B -->
  <g class="edge" id="edge19">
   <title>
    模拟题-&gt;1493B
   </title>
   <path d="M714.95,-719.7C716.95,-711.9 719.37,-702.51 721.6,-693.83" fill="none" stroke="lightgrey"/>
   <polygon fill="lightgrey" points="725,-694.66 724.1,-684.1 718.22,-692.92 725,-694.66" stroke="lightgrey"/>
  </g>
  <g class="key">
   <defs>
    <filter height="1.2" id="solid" width="1.2" x="-0.1" y="-0.1">
     <feFlood flood-color="#ccff90" result="bg"/>
     <feMerge>
      <feMergeNode in="bg"/>
      <feMergeNode in="SourceGraphic"/>
     </feMerge>
    </filter>
   </defs>
   <text filter="url(#solid)" font-family="Microsoft YaHei" font-size="10.00" text-anchor="middle" x="728.5" y="-643.0">
    时间模拟
   </text>
  </g>
 </g>
</svg>